<svg width="251" height="230" fill="none" xmlns="http://www.w3.org/2000/svg"><path d="M123.575 200c48.679 0 88.141-37.91 88.141-84.675 0-46.764-39.462-84.674-88.141-84.674-48.68 0-88.141 37.91-88.141 84.674 0 46.765 39.462 84.675 88.141 84.675Z" fill="#F7FAFC"/><path d="M58.666 60.466H184.05c4.965 0 8.867 3.748 8.867 8.518v76.156c0 4.771-3.902 8.519-8.867 8.519H58.666c-4.966 0-8.868-3.748-8.868-8.519V68.984c0-4.77 4.08-8.518 8.868-8.518Z" fill="#E2E8F0"/><path d="M226.025 94.256c2.748-2.412 2.94-6.507.429-9.147-2.511-2.64-6.774-2.824-9.521-.412-2.748 2.412-2.94 6.507-.429 9.147 2.511 2.64 6.774 2.824 9.521.412ZM72.641 39.124c2.329-.727 3.603-3.13 2.846-5.367-.756-2.237-3.258-3.461-5.587-2.734-2.328.727-3.602 3.13-2.846 5.367.757 2.237 3.259 3.461 5.587 2.734Z" fill="#F7FAFC"/><path d="M81.366 25.369c1.665 0 3.015-1.297 3.015-2.896 0-1.6-1.35-2.897-3.015-2.897s-3.014 1.297-3.014 2.897c0 1.6 1.35 2.896 3.014 2.896ZM224.663 65.918c1.567 0 2.838-1.22 2.838-2.726s-1.271-2.726-2.838-2.726c-1.567 0-2.837 1.22-2.837 2.726 0 1.505 1.27 2.726 2.837 2.726Z" fill="#4763FF"/><path d="M155.068 25.518a1.822 1.822 0 0 0 .124-2.647 2.007 2.007 0 0 0-2.756-.12 1.823 1.823 0 0 0-.124 2.648 2.007 2.007 0 0 0 2.756.12Z" fill="#F7FAFC"/><g filter="url(#a)"><path d="M184.31 88.334h-40.548c-3.946 0-7.756 1.304-10.749 3.652l-10.614 8.348c-2.993 2.348-6.803 3.652-10.749 3.652H65.523c-4.626 0-8.436 3.652-8.436 8.087 0 .391 0 .782.137 1.174l8.436 43.043c.68 4.044 4.218 7.043 8.436 7.043h98.24c4.218 0 7.756-2.869 8.436-6.912l11.838-58.826c.816-4.435-2.313-8.479-6.939-9.261h-1.361Z" fill="#fff"/></g><g filter="url(#b)"><path d="M202.701 76.788h-52.85c-5.143 0-10.108 1.705-14.01 4.771l-13.833 10.904c-3.902 3.067-8.867 4.77-14.01 4.77h-60.12c-6.03 0-10.996 4.771-10.996 10.563 0 .511 0 1.022.177 1.533l10.996 56.223c.886 5.282 5.497 9.2 10.995 9.2h128.044c5.498 0 10.109-3.748 10.996-9.029l15.429-76.838c1.064-5.793-3.015-11.074-9.045-12.097h-1.773Z" fill="#fff"/></g><path d="M100.372 135.056c3.134 0 5.675-2.442 5.675-5.453s-2.541-5.451-5.675-5.451c-3.135 0-5.675 2.44-5.675 5.451 0 3.011 2.54 5.453 5.675 5.453ZM145.065 134.885c3.134 0 5.675-2.44 5.675-5.451 0-3.011-2.541-5.452-5.675-5.452-3.135 0-5.675 2.441-5.675 5.452s2.54 5.451 5.675 5.451Z" fill="#2D3748"/><path d="M115.771 95.562c-6.207-11.585-7.626-25.726-3.547-38.333 4.079-12.608 13.478-23.512 25.36-29.645 3.725-1.874 7.804-3.407 12.06-3.578 4.256-.17 8.69 1.193 11.527 4.43 2.838 3.067 3.37 8.007 1.065 11.415-2.483 3.237-7.272 4.43-11.351 3.578-6.384-1.193-11.705-5.963-13.301-11.756s.532-12.607 5.321-16.526c3.192-2.726 7.448-4.089 11.527-5.282 19.508-5.451 40.613-6.133 60.475-2.044" stroke="#CBD5E0" stroke-width="1.667" stroke-miterlimit="10" stroke-dasharray="6.67 6.67"/><path d="M128.185 140.881h-10.818v2.556h10.818v-2.556Z" fill="#2D3748"/><path d="M225.372 3.391c-.178 2.556-.355 4.77-2.306 5.282-1.951.51-2.837-1.193-4.079-3.578-1.241-2.215-.532-4.43 1.596-4.94 2.129-.512 5.143.17 4.789 3.236ZM223.422 15.317c.532-3.066 1.064-4.6-.71-5.452-1.951-.851-3.192.682-5.143 2.726-1.773 1.874-.709 4.43 1.064 5.282 1.951 1.022 4.257 0 4.789-2.556Z" fill="#E2E8F0"/><path d="M225.726 9.865c-.177 1.193-1.064 2.045-2.305 2.215h-1.774c-2.482-.34-4.433-1.874-4.256-3.407.177-1.534 2.483-2.385 5.143-2.045.532 0 1.064.17 1.419.341 1.241.34 1.951 1.533 1.773 2.896 0 0 0-.17 0 0Z" fill="#2D3748"/><path d="M31.712 56.717c0-2.896 0-5.622 2.128-6.474 2.306-.852 3.547 1.193 5.143 3.919 1.596 2.555.887 5.11-1.419 5.963-1.95.852-5.852.34-5.852-3.408ZM32.952 42.747c-.355 3.578-.887 5.452 1.419 6.304 2.305.852 3.546-1.023 5.675-3.748 1.773-2.386.532-5.282-1.774-6.134-2.305-.852-4.966.682-5.32 3.578Z" fill="#E2E8F0"/><path d="M31 49.392c0-1.363 1.064-2.386 2.306-2.556.532-.17 1.24-.17 1.95 0 2.838.17 5.143 1.704 4.966 3.407-.177 1.704-2.483 2.897-5.32 2.556-.532 0-1.065-.17-1.596-.34-1.42-.342-2.306-1.704-2.306-3.067Z" fill="#2D3748"/><path d="M42.882 49.903c18.267 0 51.962 10.222 52.494 47.533" stroke="#CBD5E0" stroke-width="1.667" stroke-miterlimit="10" stroke-dasharray="6.67 6.67"/><defs><filter id="a" x="40.421" y="56.667" width="168.986" height="108.333" filterUnits="userSpaceOnUse" color-interpolation-filters="sRGB"><feFlood flood-opacity="0" result="BackgroundImageFix"/><feColorMatrix in="SourceAlpha" values="0 0 0 0 0 0 0 0 0 0 0 0 0 0 0 0 0 0 127 0" result="hardAlpha"/><feOffset dy="-15"/><feGaussianBlur stdDeviation="8.333"/><feColorMatrix values="0 0 0 0 0.397708 0 0 0 0 0.47749 0 0 0 0 0.575 0 0 0 0.13 0"/><feBlend in2="BackgroundImageFix" result="effect1_dropShadow_33_76"/><feBlend in="SourceGraphic" in2="effect1_dropShadow_33_76" result="shape"/></filter><filter id="b" x=".215" y="58.455" width="250.139" height="171.297" filterUnits="userSpaceOnUse" color-interpolation-filters="sRGB"><feFlood flood-opacity="0" result="BackgroundImageFix"/><feColorMatrix in="SourceAlpha" values="0 0 0 0 0 0 0 0 0 0 0 0 0 0 0 0 0 0 127 0" result="hardAlpha"/><feOffset dy="18.333"/><feGaussianBlur stdDeviation="18.333"/><feColorMatrix values="0 0 0 0 0.397708 0 0 0 0 0.47749 0 0 0 0 0.575 0 0 0 0.18 0"/><feBlend in2="BackgroundImageFix" result="effect1_dropShadow_33_76"/><feBlend in="SourceGraphic" in2="effect1_dropShadow_33_76" result="shape"/></filter></defs></svg>