<svg width="300" height="218" fill="none" xmlns="http://www.w3.org/2000/svg"><g filter="url(#a)"><path fill-rule="evenodd" clip-rule="evenodd" d="M228.077 92.695C223.129 57.272 192.531 30 155.523 30c-32.352 0-59.805 20.84-69.507 49.748-.578-.02-1.157-.03-1.74-.03-26.75 0-48.434 21.549-48.434 48.131 0 26.003 20.75 47.19 46.694 48.1v.031h134.715v-.246c1.568.176 3.161.266 4.776.266 23.268 0 42.131-18.744 42.131-41.867 0-21.081-15.679-38.523-36.081-41.438Z" fill="url(#b)"/></g><ellipse cx="155.523" cy="102.795" rx="73.254" ry="72.795" fill="url(#c)"/><ellipse cx="222.027" cy="134.133" rx="42.131" ry="41.867" fill="url(#d)"/><g filter="url(#e)"><circle cx="149.912" cy="113.496" r="36.04" fill="#fff"/></g><path d="M150.001 77.42a36.272 36.272 0 0 0-20.063 6.048 35.939 35.939 0 0 0-13.301 16.105 35.682 35.682 0 0 0-2.055 20.734 35.825 35.825 0 0 0 9.883 18.374 36.178 36.178 0 0 0 18.491 9.821 36.32 36.32 0 0 0 20.864-2.042 36.058 36.058 0 0 0 16.207-13.217 35.724 35.724 0 0 0 6.086-19.937 35.815 35.815 0 0 0-10.589-25.363 36.268 36.268 0 0 0-25.523-10.523Zm-2.778 19.323c0-.732.293-1.434.813-1.952a2.788 2.788 0 0 1 3.929 0c.521.518.814 1.22.814 1.952v19.323a2.75 2.75 0 0 1-.814 1.952 2.787 2.787 0 0 1-3.929 0 2.753 2.753 0 0 1-.813-1.952V96.743Zm2.778 35.886c-.824 0-1.63-.243-2.315-.698a4.143 4.143 0 0 1-1.535-1.858 4.117 4.117 0 0 1 .903-4.512 4.175 4.175 0 0 1 2.134-1.134 4.2 4.2 0 0 1 2.407.236 4.156 4.156 0 0 1 1.87 1.525 4.123 4.123 0 0 1-.518 5.228 4.177 4.177 0 0 1-2.946 1.213Z" fill="#E53E3E"/><defs><linearGradient id="b" x1="291.673" y1="176" x2="7.85" y2="82.352" gradientUnits="userSpaceOnUse"><stop stop-color="#E2E8F0"/><stop offset="1" stop-color="#EDF2F7"/></linearGradient><linearGradient id="c" x1="87.056" y1="30" x2="155.063" y2="103.221" gradientUnits="userSpaceOnUse"><stop stop-color="#fff"/><stop offset="1" stop-color="#fff" stop-opacity="0"/></linearGradient><linearGradient id="d" x1="198.923" y1="98.702" x2="221.823" y2="134.265" gradientUnits="userSpaceOnUse"><stop stop-color="#fff" stop-opacity=".31"/><stop offset="1" stop-color="#fff" stop-opacity="0"/></linearGradient><filter id="a" x=".539" y=".581" width="298.922" height="216.606" filterUnits="userSpaceOnUse" color-interpolation-filters="sRGB"><feFlood flood-opacity="0" result="BackgroundImageFix"/><feColorMatrix in="SourceAlpha" values="0 0 0 0 0 0 0 0 0 0 0 0 0 0 0 0 0 0 127 0" result="hardAlpha"/><feOffset dy="5.884"/><feGaussianBlur stdDeviation="17.651"/><feComposite in2="hardAlpha" operator="out"/><feColorMatrix values="0 0 0 0 0.129412 0 0 0 0 0.145098 0 0 0 0 0.160784 0 0 0 0.08 0"/><feBlend in2="BackgroundImageFix" result="effect1_dropShadow_88_507"/><feBlend in="SourceGraphic" in2="effect1_dropShadow_88_507" result="shape"/></filter><filter id="e" x="88.238" y="51.822" width="123.348" height="123.348" filterUnits="userSpaceOnUse" color-interpolation-filters="sRGB"><feFlood flood-opacity="0" result="BackgroundImageFix"/><feColorMatrix in="SourceAlpha" values="0 0 0 0 0 0 0 0 0 0 0 0 0 0 0 0 0 0 127 0" result="hardAlpha"/><feOffset/><feGaussianBlur stdDeviation="12.817"/><feComposite in2="hardAlpha" operator="out"/><feColorMatrix values="0 0 0 0 0.898039 0 0 0 0 0.243137 0 0 0 0 0.243137 0 0 0 0.24 0"/><feBlend in2="BackgroundImageFix" result="effect1_dropShadow_88_507"/><feBlend in="SourceGraphic" in2="effect1_dropShadow_88_507" result="shape"/></filter></defs></svg>